<svg width="50" height="51" viewBox="0 0 50 51" fill="none" xmlns="http://www.w3.org/2000/svg">
<ellipse opacity="0.98" cx="24.6392" cy="25.5" rx="24" ry="24.5" fill="#0E0E0E" stroke="#F6BE1D"/>
<path d="M39.1833 20.7262V34.0746L24.6391 42.645L10.0869 34.0746V16.9254L24.6391 8.34672L35.817 14.9381L37.5042 13.9444L24.6391 6.35938L8.39966 15.9318V35.0683L24.6391 44.6406L40.8786 35.0683V19.7326L39.1833 20.7262Z" fill="url(#paint0_linear_6_860)"/>
<path d="M37.4879 17.9523L39.167 18.9046L40.8462 17.9523V15.9401L39.167 14.9464L37.4879 15.9401V17.9523Z" fill="url(#paint1_linear_6_860)"/>
<path d="M18.2128 21.3629C18.5917 20.581 19.4144 20.0574 20.2527 20.0838C21.1994 20.0513 22.0929 20.7559 22.402 21.6821C22.5784 22.1549 22.5609 22.6775 22.4563 23.1655C22.3516 23.5783 22.5037 23.989 22.6578 24.3642C23.0716 25.3219 23.9195 26.06 24.8915 26.3162C25.2742 26.4433 25.6802 26.4128 26.0737 26.4626C27.1009 26.6538 28.098 25.7743 28.3199 24.7485C28.4207 24.1049 28.2695 23.4369 28.4507 22.8025C28.8093 21.2165 30.4925 20.1011 32.0061 20.5281C33.3502 20.8159 34.3648 22.1955 34.3454 23.624C34.3241 24.4302 34.0053 25.2223 33.4694 25.7997C32.8347 26.4698 31.9034 26.8225 31.0071 26.7097C30.6815 26.669 30.3733 26.5175 30.0409 26.5287C29.3141 26.5409 28.6038 26.9893 28.2627 27.6654C28.0583 28.0416 27.973 28.4747 27.9565 28.9048C27.9178 29.651 27.4526 30.3485 26.816 30.6748C26.1541 31.0439 25.3004 30.9819 24.6754 30.5549C23.9825 30.0923 23.6831 29.2179 23.6676 28.3893C23.4776 26.9964 22.6568 25.7174 21.4814 25.0342C21.057 24.7109 20.5279 24.9721 20.0569 24.9874C19.6809 24.8837 19.2943 24.6976 18.8979 24.778C18.1091 25.0809 17.5006 25.8302 17.2913 26.6761C17.301 27.0676 17.4977 27.4732 17.3106 27.8535C17.0345 28.6892 15.8677 28.9647 15.2883 28.3161C14.8851 27.9765 14.8861 27.3726 14.9937 26.8896C15.1187 26.606 15.3348 26.365 15.5954 26.2146C15.9366 26.0082 16.3649 26.2003 16.7089 25.998C17.5374 25.6025 18.1004 24.7444 18.2506 23.8141C18.1634 23.5813 18.0762 23.3485 17.9861 23.1167C17.9434 22.526 17.9095 21.8926 18.2128 21.3629Z" fill="white"/>
<defs>
<linearGradient id="paint0_linear_6_860" x1="34.8862" y1="-4.35201" x2="-0.615705" y2="6.08046" gradientUnits="userSpaceOnUse">
<stop stop-color="#FFDE50"/>
<stop offset="0.489558" stop-color="#F68E00"/>
<stop offset="0.489658" stop-color="#FFEA94"/>
<stop offset="1" stop-color="#FFBD00"/>
</linearGradient>
<linearGradient id="paint1_linear_6_860" x1="34.8862" y1="-4.35179" x2="-0.615666" y2="6.08082" gradientUnits="userSpaceOnUse">
<stop stop-color="white"/>
<stop offset="0.489658" stop-color="#3772FF"/>
<stop offset="0.489758" stop-color="white"/>
<stop offset="1" stop-color="white"/>
</linearGradient>
</defs>
</svg>
